<svg xmlns="http://www.w3.org/2000/svg" width="288" height="367" viewBox="0 0 288 367"><defs><style>.a{fill:#f9f1ea;}</style></defs><path class="a" d="M-19955.287,245.74l-52.719,38.523V257.355l35.094-25.354-35.094-25.369V180.509l52.338,38.708,54.7-40.446v27.292l-37.062,26.508,37.063,26.723V286Zm163.469-12.938a93.348,93.348,0,0,1-35.256-37.169q-12.712-23.792-12.717-53.446,0-30.023,12.717-53.831a93.448,93.448,0,0,1,35.256-37.169q22.526-13.362,51.242-13.354t51.418,13.354a93.164,93.164,0,0,1,35.43,37.169q12.712,23.792,12.723,53.831,0,29.654-12.723,53.446a93.065,93.065,0,0,1-35.43,37.169q-22.714,13.362-51.418,13.369Q-19769.3,246.171-19791.818,232.8Zm7.266-132.369q-16.72,16.477-16.725,41.754,0,25.246,16.725,41.554,16.729,16.292,43.977,16.292t43.973-16.292q16.7-16.292,16.7-41.554t-16.7-41.754q-16.734-16.477-43.973-16.477Q-19767.846,83.955-19784.553,100.432Zm-170.734-35.462-52.719,38.523V76.586l35.094-25.354-35.094-25.369V-.26l52.338,38.708,54.7-40.446V25.294l-37.062,26.508,37.063,26.723v26.708Z" transform="translate(286.001 20008.006) rotate(90)"/></svg>